<mxfile host="Electron" agent="Mozilla/5.0 (Macintosh; Intel Mac OS X 10_15_7) AppleWebKit/537.36 (KHTML, like Gecko) draw.io/26.2.15 Chrome/134.0.6998.205 Electron/35.2.1 Safari/537.36" version="26.2.15" pages="3">
  <diagram id="C5RBs43oDa-KdzZeNtuy" name="设备管理">
    <mxGraphModel dx="1306" dy="873" grid="1" gridSize="10" guides="1" tooltips="1" connect="1" arrows="1" fold="1" page="1" pageScale="1" pageWidth="827" pageHeight="1169" math="0" shadow="0">
      <root>
        <mxCell id="WIyWlLk6GJQsqaUBKTNV-0" />
        <mxCell id="WIyWlLk6GJQsqaUBKTNV-1" parent="WIyWlLk6GJQsqaUBKTNV-0" />
        <mxCell id="PaXxXBXV6vepnugb2h2L-4" value="自然语言处理" style="swimlane;horizontal=0;whiteSpace=wrap;html=1;fillColor=#d5e8d4;strokeColor=#82b366;" parent="WIyWlLk6GJQsqaUBKTNV-1" vertex="1">
          <mxGeometry x="40" y="560" width="1080" height="570" as="geometry" />
        </mxCell>
        <mxCell id="PaXxXBXV6vepnugb2h2L-1" value="语音识别" style="swimlane;whiteSpace=wrap;html=1;fillColor=#d0cee2;strokeColor=#56517e;" parent="PaXxXBXV6vepnugb2h2L-4" vertex="1">
          <mxGeometry x="40" y="20" width="400" height="530" as="geometry" />
        </mxCell>
        <mxCell id="WIyWlLk6GJQsqaUBKTNV-3" value="初始化麦克风" style="rounded=1;whiteSpace=wrap;html=1;fontSize=12;glass=0;strokeWidth=1;shadow=0;" parent="PaXxXBXV6vepnugb2h2L-1" vertex="1">
          <mxGeometry x="40" y="60" width="120" height="40" as="geometry" />
        </mxCell>
        <mxCell id="wEJjmFlKhk_rzafWWBey-30" style="edgeStyle=orthogonalEdgeStyle;rounded=0;orthogonalLoop=1;jettySize=auto;html=1;" parent="PaXxXBXV6vepnugb2h2L-1" source="wEJjmFlKhk_rzafWWBey-28" target="wEJjmFlKhk_rzafWWBey-29" edge="1">
          <mxGeometry relative="1" as="geometry" />
        </mxCell>
        <mxCell id="wEJjmFlKhk_rzafWWBey-28" value="开始记录" style="rounded=1;whiteSpace=wrap;html=1;fontSize=12;glass=0;strokeWidth=1;shadow=0;" parent="PaXxXBXV6vepnugb2h2L-1" vertex="1">
          <mxGeometry x="40" y="140" width="120" height="40" as="geometry" />
        </mxCell>
        <mxCell id="WIyWlLk6GJQsqaUBKTNV-2" value="" style="rounded=0;html=1;jettySize=auto;orthogonalLoop=1;fontSize=11;endArrow=block;endFill=0;endSize=8;strokeWidth=1;shadow=0;labelBackgroundColor=none;edgeStyle=orthogonalEdgeStyle;" parent="PaXxXBXV6vepnugb2h2L-1" source="WIyWlLk6GJQsqaUBKTNV-3" target="wEJjmFlKhk_rzafWWBey-28" edge="1">
          <mxGeometry relative="1" as="geometry">
            <mxPoint x="90" y="180" as="targetPoint" />
          </mxGeometry>
        </mxCell>
        <mxCell id="wEJjmFlKhk_rzafWWBey-32" value="" style="edgeStyle=orthogonalEdgeStyle;rounded=0;orthogonalLoop=1;jettySize=auto;html=1;" parent="PaXxXBXV6vepnugb2h2L-1" source="wEJjmFlKhk_rzafWWBey-29" target="wEJjmFlKhk_rzafWWBey-31" edge="1">
          <mxGeometry relative="1" as="geometry" />
        </mxCell>
        <mxCell id="wEJjmFlKhk_rzafWWBey-36" style="edgeStyle=orthogonalEdgeStyle;rounded=0;orthogonalLoop=1;jettySize=auto;html=1;entryX=0.5;entryY=0;entryDx=0;entryDy=0;" parent="PaXxXBXV6vepnugb2h2L-1" source="wEJjmFlKhk_rzafWWBey-29" target="WIyWlLk6GJQsqaUBKTNV-7" edge="1">
          <mxGeometry relative="1" as="geometry" />
        </mxCell>
        <mxCell id="wEJjmFlKhk_rzafWWBey-29" value="获取音频流" style="rounded=1;whiteSpace=wrap;html=1;fontSize=12;glass=0;strokeWidth=1;shadow=0;" parent="PaXxXBXV6vepnugb2h2L-1" vertex="1">
          <mxGeometry x="40" y="220" width="120" height="40" as="geometry" />
        </mxCell>
        <mxCell id="wEJjmFlKhk_rzafWWBey-34" style="edgeStyle=orthogonalEdgeStyle;rounded=0;orthogonalLoop=1;jettySize=auto;html=1;" parent="PaXxXBXV6vepnugb2h2L-1" source="wEJjmFlKhk_rzafWWBey-31" target="wEJjmFlKhk_rzafWWBey-33" edge="1">
          <mxGeometry relative="1" as="geometry" />
        </mxCell>
        <mxCell id="wEJjmFlKhk_rzafWWBey-31" value="云端推流" style="rounded=1;whiteSpace=wrap;html=1;fontSize=12;glass=0;strokeWidth=1;shadow=0;" parent="PaXxXBXV6vepnugb2h2L-1" vertex="1">
          <mxGeometry x="200" y="220" width="120" height="40" as="geometry" />
        </mxCell>
        <mxCell id="wEJjmFlKhk_rzafWWBey-35" value="" style="edgeStyle=orthogonalEdgeStyle;rounded=0;orthogonalLoop=1;jettySize=auto;html=1;" parent="PaXxXBXV6vepnugb2h2L-1" source="wEJjmFlKhk_rzafWWBey-33" target="WIyWlLk6GJQsqaUBKTNV-7" edge="1">
          <mxGeometry relative="1" as="geometry" />
        </mxCell>
        <mxCell id="wEJjmFlKhk_rzafWWBey-33" value="语音识别" style="rounded=1;whiteSpace=wrap;html=1;fontSize=12;glass=0;strokeWidth=1;shadow=0;" parent="PaXxXBXV6vepnugb2h2L-1" vertex="1">
          <mxGeometry x="200" y="300" width="120" height="40" as="geometry" />
        </mxCell>
        <mxCell id="wEJjmFlKhk_rzafWWBey-41" style="edgeStyle=orthogonalEdgeStyle;rounded=0;orthogonalLoop=1;jettySize=auto;html=1;entryX=0.5;entryY=0;entryDx=0;entryDy=0;" parent="PaXxXBXV6vepnugb2h2L-1" source="WIyWlLk6GJQsqaUBKTNV-7" target="wEJjmFlKhk_rzafWWBey-37" edge="1">
          <mxGeometry relative="1" as="geometry" />
        </mxCell>
        <mxCell id="WIyWlLk6GJQsqaUBKTNV-7" value="回调" style="rounded=1;whiteSpace=wrap;html=1;fontSize=12;glass=0;strokeWidth=1;shadow=0;" parent="PaXxXBXV6vepnugb2h2L-1" vertex="1">
          <mxGeometry x="40" y="300" width="120" height="40" as="geometry" />
        </mxCell>
        <mxCell id="wEJjmFlKhk_rzafWWBey-42" value="" style="group" parent="PaXxXBXV6vepnugb2h2L-1" vertex="1" connectable="0">
          <mxGeometry x="60" y="380" width="320" height="40" as="geometry" />
        </mxCell>
        <mxCell id="wEJjmFlKhk_rzafWWBey-37" value="唤醒" style="shape=step;perimeter=stepPerimeter;whiteSpace=wrap;html=1;fixedSize=1;" parent="wEJjmFlKhk_rzafWWBey-42" vertex="1">
          <mxGeometry width="80" height="40" as="geometry" />
        </mxCell>
        <mxCell id="wEJjmFlKhk_rzafWWBey-38" value="中途回调" style="shape=step;perimeter=stepPerimeter;whiteSpace=wrap;html=1;fixedSize=1;" parent="wEJjmFlKhk_rzafWWBey-42" vertex="1">
          <mxGeometry x="70" width="90" height="40" as="geometry" />
        </mxCell>
        <mxCell id="wEJjmFlKhk_rzafWWBey-39" value="识别结果" style="shape=step;perimeter=stepPerimeter;whiteSpace=wrap;html=1;fixedSize=1;" parent="wEJjmFlKhk_rzafWWBey-42" vertex="1">
          <mxGeometry x="150" width="90" height="40" as="geometry" />
        </mxCell>
        <mxCell id="wEJjmFlKhk_rzafWWBey-40" value="错误回调" style="shape=step;perimeter=stepPerimeter;whiteSpace=wrap;html=1;fixedSize=1;" parent="wEJjmFlKhk_rzafWWBey-42" vertex="1">
          <mxGeometry x="230" width="90" height="40" as="geometry" />
        </mxCell>
        <mxCell id="wEJjmFlKhk_rzafWWBey-43" value="识别结果" style="rounded=1;whiteSpace=wrap;html=1;" parent="PaXxXBXV6vepnugb2h2L-1" vertex="1">
          <mxGeometry x="195" y="460" width="120" height="40" as="geometry" />
        </mxCell>
        <mxCell id="wEJjmFlKhk_rzafWWBey-44" value="" style="edgeStyle=orthogonalEdgeStyle;rounded=0;orthogonalLoop=1;jettySize=auto;html=1;" parent="PaXxXBXV6vepnugb2h2L-1" source="wEJjmFlKhk_rzafWWBey-39" target="wEJjmFlKhk_rzafWWBey-43" edge="1">
          <mxGeometry relative="1" as="geometry" />
        </mxCell>
        <mxCell id="wEJjmFlKhk_rzafWWBey-45" value="被唤醒" style="rounded=1;whiteSpace=wrap;html=1;" parent="PaXxXBXV6vepnugb2h2L-1" vertex="1">
          <mxGeometry x="40" y="460" width="120" height="40" as="geometry" />
        </mxCell>
        <mxCell id="wEJjmFlKhk_rzafWWBey-46" style="edgeStyle=orthogonalEdgeStyle;rounded=0;orthogonalLoop=1;jettySize=auto;html=1;" parent="PaXxXBXV6vepnugb2h2L-1" source="wEJjmFlKhk_rzafWWBey-37" target="wEJjmFlKhk_rzafWWBey-45" edge="1">
          <mxGeometry relative="1" as="geometry" />
        </mxCell>
        <mxCell id="PaXxXBXV6vepnugb2h2L-2" value="语音合成" style="swimlane;whiteSpace=wrap;html=1;fillColor=#b1ddf0;strokeColor=#10739e;" parent="PaXxXBXV6vepnugb2h2L-4" vertex="1">
          <mxGeometry x="480" y="20" width="560" height="530" as="geometry" />
        </mxCell>
        <mxCell id="wEJjmFlKhk_rzafWWBey-62" style="edgeStyle=orthogonalEdgeStyle;rounded=0;orthogonalLoop=1;jettySize=auto;html=1;" parent="PaXxXBXV6vepnugb2h2L-2" source="wEJjmFlKhk_rzafWWBey-47" target="wEJjmFlKhk_rzafWWBey-48" edge="1">
          <mxGeometry relative="1" as="geometry" />
        </mxCell>
        <mxCell id="wEJjmFlKhk_rzafWWBey-47" value="初始化喇叭" style="rounded=1;whiteSpace=wrap;html=1;" parent="PaXxXBXV6vepnugb2h2L-2" vertex="1">
          <mxGeometry x="200" y="60" width="120" height="40" as="geometry" />
        </mxCell>
        <mxCell id="wEJjmFlKhk_rzafWWBey-61" style="edgeStyle=orthogonalEdgeStyle;rounded=0;orthogonalLoop=1;jettySize=auto;html=1;entryX=0;entryY=0.5;entryDx=0;entryDy=0;" parent="PaXxXBXV6vepnugb2h2L-2" source="wEJjmFlKhk_rzafWWBey-52" target="wEJjmFlKhk_rzafWWBey-50" edge="1">
          <mxGeometry relative="1" as="geometry" />
        </mxCell>
        <mxCell id="wEJjmFlKhk_rzafWWBey-52" value="推流" style="rounded=1;whiteSpace=wrap;html=1;" parent="PaXxXBXV6vepnugb2h2L-2" vertex="1">
          <mxGeometry x="40" y="300" width="120" height="40" as="geometry" />
        </mxCell>
        <mxCell id="wEJjmFlKhk_rzafWWBey-63" style="edgeStyle=orthogonalEdgeStyle;rounded=0;orthogonalLoop=1;jettySize=auto;html=1;" parent="PaXxXBXV6vepnugb2h2L-2" source="wEJjmFlKhk_rzafWWBey-48" target="wEJjmFlKhk_rzafWWBey-51" edge="1">
          <mxGeometry relative="1" as="geometry" />
        </mxCell>
        <mxCell id="wEJjmFlKhk_rzafWWBey-48" value="设置回调方法" style="rounded=1;whiteSpace=wrap;html=1;" parent="PaXxXBXV6vepnugb2h2L-2" vertex="1">
          <mxGeometry x="200" y="140" width="120" height="40" as="geometry" />
        </mxCell>
        <mxCell id="wEJjmFlKhk_rzafWWBey-64" style="edgeStyle=orthogonalEdgeStyle;rounded=0;orthogonalLoop=1;jettySize=auto;html=1;" parent="PaXxXBXV6vepnugb2h2L-2" source="wEJjmFlKhk_rzafWWBey-51" target="wEJjmFlKhk_rzafWWBey-50" edge="1">
          <mxGeometry relative="1" as="geometry" />
        </mxCell>
        <mxCell id="wEJjmFlKhk_rzafWWBey-51" value="开始" style="rounded=1;whiteSpace=wrap;html=1;" parent="PaXxXBXV6vepnugb2h2L-2" vertex="1">
          <mxGeometry x="200" y="220" width="120" height="40" as="geometry" />
        </mxCell>
        <mxCell id="wEJjmFlKhk_rzafWWBey-65" style="edgeStyle=orthogonalEdgeStyle;rounded=0;orthogonalLoop=1;jettySize=auto;html=1;" parent="PaXxXBXV6vepnugb2h2L-2" source="wEJjmFlKhk_rzafWWBey-50" target="wEJjmFlKhk_rzafWWBey-56" edge="1">
          <mxGeometry relative="1" as="geometry" />
        </mxCell>
        <mxCell id="wEJjmFlKhk_rzafWWBey-50" value="等待文本推流" style="rounded=1;whiteSpace=wrap;html=1;" parent="PaXxXBXV6vepnugb2h2L-2" vertex="1">
          <mxGeometry x="200" y="300" width="120" height="40" as="geometry" />
        </mxCell>
        <mxCell id="wEJjmFlKhk_rzafWWBey-49" value="播放完成" style="rounded=1;whiteSpace=wrap;html=1;" parent="PaXxXBXV6vepnugb2h2L-2" vertex="1">
          <mxGeometry x="200" y="460" width="120" height="40" as="geometry" />
        </mxCell>
        <mxCell id="wEJjmFlKhk_rzafWWBey-66" style="edgeStyle=orthogonalEdgeStyle;rounded=0;orthogonalLoop=1;jettySize=auto;html=1;" parent="PaXxXBXV6vepnugb2h2L-2" source="wEJjmFlKhk_rzafWWBey-56" target="wEJjmFlKhk_rzafWWBey-49" edge="1">
          <mxGeometry relative="1" as="geometry" />
        </mxCell>
        <mxCell id="wEJjmFlKhk_rzafWWBey-67" value="" style="group" parent="PaXxXBXV6vepnugb2h2L-2" vertex="1" connectable="0">
          <mxGeometry x="82" y="380" width="340" height="40" as="geometry" />
        </mxCell>
        <mxCell id="wEJjmFlKhk_rzafWWBey-55" value="开始合成回调" style="shape=step;perimeter=stepPerimeter;whiteSpace=wrap;html=1;fixedSize=1;" parent="wEJjmFlKhk_rzafWWBey-67" vertex="1">
          <mxGeometry width="125" height="40" as="geometry" />
        </mxCell>
        <mxCell id="wEJjmFlKhk_rzafWWBey-56" value="结束合成回调" style="shape=step;perimeter=stepPerimeter;whiteSpace=wrap;html=1;fixedSize=1;" parent="wEJjmFlKhk_rzafWWBey-67" vertex="1">
          <mxGeometry x="115" width="125" height="40" as="geometry" />
        </mxCell>
        <mxCell id="wEJjmFlKhk_rzafWWBey-57" value="错误回调" style="shape=step;perimeter=stepPerimeter;whiteSpace=wrap;html=1;fixedSize=1;" parent="wEJjmFlKhk_rzafWWBey-67" vertex="1">
          <mxGeometry x="230" width="110" height="40" as="geometry" />
        </mxCell>
        <mxCell id="PaXxXBXV6vepnugb2h2L-3" value="状态管理" style="swimlane;whiteSpace=wrap;html=1;fillColor=#f5f5f5;fontColor=#333333;strokeColor=#666666;fillStyle=auto;" parent="WIyWlLk6GJQsqaUBKTNV-1" vertex="1">
          <mxGeometry x="40" y="120" width="1080" height="100" as="geometry" />
        </mxCell>
        <mxCell id="2eOtv4qnFLeK9Mq3x5hG-0" value="麦克风" style="rounded=1;whiteSpace=wrap;html=1;fillColor=#fad7ac;strokeColor=#b46504;" parent="PaXxXBXV6vepnugb2h2L-3" vertex="1">
          <mxGeometry x="40" y="40" width="280" height="40" as="geometry" />
        </mxCell>
        <mxCell id="2eOtv4qnFLeK9Mq3x5hG-1" value="喇叭" style="rounded=1;whiteSpace=wrap;html=1;fillColor=#fad9d5;strokeColor=#ae4132;" parent="PaXxXBXV6vepnugb2h2L-3" vertex="1">
          <mxGeometry x="360" y="40" width="280" height="40" as="geometry" />
        </mxCell>
        <mxCell id="wEJjmFlKhk_rzafWWBey-0" value="摄像头" style="rounded=1;whiteSpace=wrap;html=1;fillColor=#b0e3e6;strokeColor=#0e8088;" parent="PaXxXBXV6vepnugb2h2L-3" vertex="1">
          <mxGeometry x="680" y="40" width="200" height="40" as="geometry" />
        </mxCell>
        <mxCell id="wEJjmFlKhk_rzafWWBey-1" value="键盘" style="rounded=1;whiteSpace=wrap;html=1;fillColor=#b1ddf0;strokeColor=#10739e;" parent="PaXxXBXV6vepnugb2h2L-3" vertex="1">
          <mxGeometry x="920" y="40" width="120" height="40" as="geometry" />
        </mxCell>
        <mxCell id="wEJjmFlKhk_rzafWWBey-2" value="状态管理" style="swimlane;horizontal=0;whiteSpace=wrap;html=1;fillColor=#dae8fc;strokeColor=#6c8ebf;" parent="WIyWlLk6GJQsqaUBKTNV-1" vertex="1">
          <mxGeometry x="40" y="260" width="1080" height="260" as="geometry" />
        </mxCell>
        <mxCell id="PaXxXBXV6vepnugb2h2L-0" value="麦克风" style="swimlane;whiteSpace=wrap;html=1;fillColor=#ffe6cc;strokeColor=#d79b00;" parent="wEJjmFlKhk_rzafWWBey-2" vertex="1">
          <mxGeometry x="40" y="20" width="280" height="220" as="geometry" />
        </mxCell>
        <mxCell id="wEJjmFlKhk_rzafWWBey-3" value="初始化" style="rounded=1;whiteSpace=wrap;html=1;" parent="PaXxXBXV6vepnugb2h2L-0" vertex="1">
          <mxGeometry x="40" y="40" width="80" height="40" as="geometry" />
        </mxCell>
        <mxCell id="wEJjmFlKhk_rzafWWBey-4" value="录音状态" style="rounded=1;whiteSpace=wrap;html=1;" parent="PaXxXBXV6vepnugb2h2L-0" vertex="1">
          <mxGeometry x="160" y="40" width="80" height="40" as="geometry" />
        </mxCell>
        <mxCell id="wEJjmFlKhk_rzafWWBey-15" value="编码" style="rounded=1;whiteSpace=wrap;html=1;" parent="PaXxXBXV6vepnugb2h2L-0" vertex="1">
          <mxGeometry x="40" y="100" width="80" height="40" as="geometry" />
        </mxCell>
        <mxCell id="wEJjmFlKhk_rzafWWBey-16" value="采样率" style="rounded=1;whiteSpace=wrap;html=1;" parent="PaXxXBXV6vepnugb2h2L-0" vertex="1">
          <mxGeometry x="160" y="100" width="80" height="40" as="geometry" />
        </mxCell>
        <mxCell id="wEJjmFlKhk_rzafWWBey-17" value="切换" style="rounded=1;whiteSpace=wrap;html=1;" parent="PaXxXBXV6vepnugb2h2L-0" vertex="1">
          <mxGeometry x="40" y="160" width="80" height="40" as="geometry" />
        </mxCell>
        <mxCell id="wEJjmFlKhk_rzafWWBey-18" value="缓冲区" style="rounded=1;whiteSpace=wrap;html=1;" parent="PaXxXBXV6vepnugb2h2L-0" vertex="1">
          <mxGeometry x="160" y="160" width="80" height="40" as="geometry" />
        </mxCell>
        <mxCell id="wEJjmFlKhk_rzafWWBey-6" value="喇叭" style="swimlane;whiteSpace=wrap;html=1;fillColor=#fff2cc;strokeColor=#d6b656;" parent="wEJjmFlKhk_rzafWWBey-2" vertex="1">
          <mxGeometry x="360" y="20" width="280" height="220" as="geometry" />
        </mxCell>
        <mxCell id="wEJjmFlKhk_rzafWWBey-7" value="初始化" style="rounded=1;whiteSpace=wrap;html=1;" parent="wEJjmFlKhk_rzafWWBey-6" vertex="1">
          <mxGeometry x="40" y="40" width="80" height="40" as="geometry" />
        </mxCell>
        <mxCell id="wEJjmFlKhk_rzafWWBey-8" value="播放状态" style="rounded=1;whiteSpace=wrap;html=1;" parent="wEJjmFlKhk_rzafWWBey-6" vertex="1">
          <mxGeometry x="160" y="40" width="80" height="40" as="geometry" />
        </mxCell>
        <mxCell id="wEJjmFlKhk_rzafWWBey-19" value="编码" style="rounded=1;whiteSpace=wrap;html=1;" parent="wEJjmFlKhk_rzafWWBey-6" vertex="1">
          <mxGeometry x="40" y="100" width="80" height="40" as="geometry" />
        </mxCell>
        <mxCell id="wEJjmFlKhk_rzafWWBey-20" value="格式" style="rounded=1;whiteSpace=wrap;html=1;" parent="wEJjmFlKhk_rzafWWBey-6" vertex="1">
          <mxGeometry x="160" y="100" width="80" height="40" as="geometry" />
        </mxCell>
        <mxCell id="wEJjmFlKhk_rzafWWBey-21" value="缓冲区" style="rounded=1;whiteSpace=wrap;html=1;" parent="wEJjmFlKhk_rzafWWBey-6" vertex="1">
          <mxGeometry x="40" y="160" width="200" height="40" as="geometry" />
        </mxCell>
        <mxCell id="wEJjmFlKhk_rzafWWBey-9" value="摄像头" style="swimlane;whiteSpace=wrap;html=1;fillColor=#f8cecc;strokeColor=#b85450;" parent="wEJjmFlKhk_rzafWWBey-2" vertex="1">
          <mxGeometry x="680" y="20" width="360" height="220" as="geometry" />
        </mxCell>
        <mxCell id="wEJjmFlKhk_rzafWWBey-10" value="初始化" style="rounded=1;whiteSpace=wrap;html=1;" parent="wEJjmFlKhk_rzafWWBey-9" vertex="1">
          <mxGeometry x="40" y="40" width="120" height="40" as="geometry" />
        </mxCell>
        <mxCell id="wEJjmFlKhk_rzafWWBey-11" value="当前摄像头" style="rounded=1;whiteSpace=wrap;html=1;" parent="wEJjmFlKhk_rzafWWBey-9" vertex="1">
          <mxGeometry x="40" y="100" width="120" height="40" as="geometry" />
        </mxCell>
        <mxCell id="wEJjmFlKhk_rzafWWBey-12" value="录制状态" style="rounded=1;whiteSpace=wrap;html=1;" parent="wEJjmFlKhk_rzafWWBey-9" vertex="1">
          <mxGeometry x="200" y="40" width="120" height="40" as="geometry" />
        </mxCell>
        <mxCell id="wEJjmFlKhk_rzafWWBey-13" value="视频编码" style="rounded=1;whiteSpace=wrap;html=1;" parent="wEJjmFlKhk_rzafWWBey-9" vertex="1">
          <mxGeometry x="200" y="100" width="120" height="40" as="geometry" />
        </mxCell>
        <mxCell id="WIyWlLk6GJQsqaUBKTNV-11" value="HDMI IN" style="rounded=1;whiteSpace=wrap;html=1;fontSize=12;glass=0;strokeWidth=1;shadow=0;" parent="wEJjmFlKhk_rzafWWBey-9" vertex="1">
          <mxGeometry x="40" y="160" width="120" height="40" as="geometry" />
        </mxCell>
        <mxCell id="wEJjmFlKhk_rzafWWBey-22" value="&lt;h1 style=&quot;margin-top: 0px;&quot;&gt;Android AI 人工智能开发，全流程设备管理&lt;/h1&gt;&lt;p&gt;Design by netkiller - https://www.netkiller.cn/android/&lt;/p&gt;" style="text;html=1;whiteSpace=wrap;overflow=hidden;rounded=0;" parent="WIyWlLk6GJQsqaUBKTNV-1" vertex="1">
          <mxGeometry x="40" y="40" width="1080" height="80" as="geometry" />
        </mxCell>
        <mxCell id="wEJjmFlKhk_rzafWWBey-23" style="edgeStyle=orthogonalEdgeStyle;rounded=0;orthogonalLoop=1;jettySize=auto;html=1;" parent="WIyWlLk6GJQsqaUBKTNV-1" source="PaXxXBXV6vepnugb2h2L-0" target="2eOtv4qnFLeK9Mq3x5hG-0" edge="1">
          <mxGeometry relative="1" as="geometry" />
        </mxCell>
        <mxCell id="wEJjmFlKhk_rzafWWBey-24" style="edgeStyle=orthogonalEdgeStyle;rounded=0;orthogonalLoop=1;jettySize=auto;html=1;" parent="WIyWlLk6GJQsqaUBKTNV-1" source="wEJjmFlKhk_rzafWWBey-6" target="2eOtv4qnFLeK9Mq3x5hG-1" edge="1">
          <mxGeometry relative="1" as="geometry" />
        </mxCell>
        <mxCell id="wEJjmFlKhk_rzafWWBey-25" style="edgeStyle=orthogonalEdgeStyle;rounded=0;orthogonalLoop=1;jettySize=auto;html=1;" parent="WIyWlLk6GJQsqaUBKTNV-1" source="wEJjmFlKhk_rzafWWBey-9" target="wEJjmFlKhk_rzafWWBey-0" edge="1">
          <mxGeometry relative="1" as="geometry" />
        </mxCell>
        <mxCell id="wEJjmFlKhk_rzafWWBey-26" style="edgeStyle=orthogonalEdgeStyle;rounded=0;orthogonalLoop=1;jettySize=auto;html=1;" parent="WIyWlLk6GJQsqaUBKTNV-1" source="PaXxXBXV6vepnugb2h2L-1" target="PaXxXBXV6vepnugb2h2L-0" edge="1">
          <mxGeometry relative="1" as="geometry" />
        </mxCell>
        <mxCell id="wEJjmFlKhk_rzafWWBey-27" style="edgeStyle=orthogonalEdgeStyle;rounded=0;orthogonalLoop=1;jettySize=auto;html=1;" parent="WIyWlLk6GJQsqaUBKTNV-1" source="PaXxXBXV6vepnugb2h2L-2" target="wEJjmFlKhk_rzafWWBey-6" edge="1">
          <mxGeometry relative="1" as="geometry" />
        </mxCell>
        <mxCell id="wEJjmFlKhk_rzafWWBey-68" value="语音交互" style="swimlane;horizontal=0;whiteSpace=wrap;html=1;fillColor=#b0e3e6;strokeColor=#0e8088;" parent="WIyWlLk6GJQsqaUBKTNV-1" vertex="1">
          <mxGeometry x="40" y="1160" width="1080" height="200" as="geometry" />
        </mxCell>
        <mxCell id="wEJjmFlKhk_rzafWWBey-69" value="语音唤醒" style="shape=step;perimeter=stepPerimeter;whiteSpace=wrap;html=1;fixedSize=1;" parent="wEJjmFlKhk_rzafWWBey-68" vertex="1">
          <mxGeometry x="80" y="80" width="120" height="40" as="geometry" />
        </mxCell>
        <mxCell id="wEJjmFlKhk_rzafWWBey-70" value="语音意图" style="shape=step;perimeter=stepPerimeter;whiteSpace=wrap;html=1;fixedSize=1;" parent="wEJjmFlKhk_rzafWWBey-68" vertex="1">
          <mxGeometry x="200" y="80" width="120" height="40" as="geometry" />
        </mxCell>
        <mxCell id="wEJjmFlKhk_rzafWWBey-73" style="edgeStyle=orthogonalEdgeStyle;rounded=0;orthogonalLoop=1;jettySize=auto;html=1;" parent="wEJjmFlKhk_rzafWWBey-68" source="wEJjmFlKhk_rzafWWBey-71" target="wEJjmFlKhk_rzafWWBey-72" edge="1">
          <mxGeometry relative="1" as="geometry" />
        </mxCell>
        <mxCell id="wEJjmFlKhk_rzafWWBey-71" value="技能分析" style="shape=step;perimeter=stepPerimeter;whiteSpace=wrap;html=1;fixedSize=1;" parent="wEJjmFlKhk_rzafWWBey-68" vertex="1">
          <mxGeometry x="320" y="80" width="120" height="40" as="geometry" />
        </mxCell>
        <mxCell id="wEJjmFlKhk_rzafWWBey-75" value="" style="edgeStyle=orthogonalEdgeStyle;rounded=0;orthogonalLoop=1;jettySize=auto;html=1;entryX=0;entryY=0.5;entryDx=0;entryDy=0;exitX=0.5;exitY=0;exitDx=0;exitDy=0;" parent="wEJjmFlKhk_rzafWWBey-68" source="wEJjmFlKhk_rzafWWBey-72" target="wEJjmFlKhk_rzafWWBey-74" edge="1">
          <mxGeometry relative="1" as="geometry" />
        </mxCell>
        <mxCell id="wEJjmFlKhk_rzafWWBey-78" value="HIT" style="edgeLabel;html=1;align=center;verticalAlign=middle;resizable=0;points=[];" parent="wEJjmFlKhk_rzafWWBey-75" vertex="1" connectable="0">
          <mxGeometry x="0.0857" y="4" relative="1" as="geometry">
            <mxPoint x="4" y="4" as="offset" />
          </mxGeometry>
        </mxCell>
        <mxCell id="wEJjmFlKhk_rzafWWBey-77" value="MISS" style="edgeStyle=orthogonalEdgeStyle;rounded=0;orthogonalLoop=1;jettySize=auto;html=1;entryX=0;entryY=0.5;entryDx=0;entryDy=0;exitX=0.5;exitY=1;exitDx=0;exitDy=0;" parent="wEJjmFlKhk_rzafWWBey-68" source="wEJjmFlKhk_rzafWWBey-72" target="wEJjmFlKhk_rzafWWBey-76" edge="1">
          <mxGeometry x="0.1429" relative="1" as="geometry">
            <mxPoint as="offset" />
          </mxGeometry>
        </mxCell>
        <mxCell id="wEJjmFlKhk_rzafWWBey-72" value="命中" style="rhombus;whiteSpace=wrap;html=1;" parent="wEJjmFlKhk_rzafWWBey-68" vertex="1">
          <mxGeometry x="480" y="70" width="80" height="60" as="geometry" />
        </mxCell>
        <mxCell id="wEJjmFlKhk_rzafWWBey-74" value="执行技能" style="rounded=1;whiteSpace=wrap;html=1;" parent="wEJjmFlKhk_rzafWWBey-68" vertex="1">
          <mxGeometry x="640" y="30" width="120" height="40" as="geometry" />
        </mxCell>
        <mxCell id="wEJjmFlKhk_rzafWWBey-76" value="失败" style="rounded=1;whiteSpace=wrap;html=1;" parent="wEJjmFlKhk_rzafWWBey-68" vertex="1">
          <mxGeometry x="640" y="130" width="120" height="40" as="geometry" />
        </mxCell>
      </root>
    </mxGraphModel>
  </diagram>
  <diagram id="-YMbnC_265dIAH7a7Jr-" name="声音回采">
    <mxGraphModel dx="1306" dy="873" grid="1" gridSize="10" guides="1" tooltips="1" connect="1" arrows="1" fold="1" page="1" pageScale="1" pageWidth="827" pageHeight="1169" math="0" shadow="0">
      <root>
        <mxCell id="0" />
        <mxCell id="1" parent="0" />
        <mxCell id="jtE4v7U7eqWrBJsc5t6h-1" style="edgeStyle=orthogonalEdgeStyle;rounded=0;orthogonalLoop=1;jettySize=auto;html=1;" parent="1" source="jtE4v7U7eqWrBJsc5t6h-2" target="jtE4v7U7eqWrBJsc5t6h-12" edge="1">
          <mxGeometry relative="1" as="geometry" />
        </mxCell>
        <mxCell id="jtE4v7U7eqWrBJsc5t6h-2" value="说话人" style="shape=umlActor;verticalLabelPosition=bottom;verticalAlign=top;html=1;outlineConnect=0;fillColor=#e1d5e7;strokeColor=#9673a6;" parent="1" vertex="1">
          <mxGeometry x="40" y="240" width="30" height="60" as="geometry" />
        </mxCell>
        <mxCell id="jtE4v7U7eqWrBJsc5t6h-3" style="edgeStyle=orthogonalEdgeStyle;rounded=0;orthogonalLoop=1;jettySize=auto;html=1;" parent="1" source="jtE4v7U7eqWrBJsc5t6h-5" target="jtE4v7U7eqWrBJsc5t6h-15" edge="1">
          <mxGeometry relative="1" as="geometry" />
        </mxCell>
        <mxCell id="jtE4v7U7eqWrBJsc5t6h-4" value="说话人" style="edgeLabel;html=1;align=center;verticalAlign=middle;resizable=0;points=[];" parent="jtE4v7U7eqWrBJsc5t6h-3" vertex="1" connectable="0">
          <mxGeometry x="-0.0167" relative="1" as="geometry">
            <mxPoint as="offset" />
          </mxGeometry>
        </mxCell>
        <mxCell id="jtE4v7U7eqWrBJsc5t6h-5" value="音频处理&lt;div&gt;芯片&lt;/div&gt;" style="rounded=1;whiteSpace=wrap;html=1;fillColor=#d5e8d4;strokeColor=#82b366;" parent="1" vertex="1">
          <mxGeometry x="360" y="240" width="120" height="60" as="geometry" />
        </mxCell>
        <mxCell id="jtE4v7U7eqWrBJsc5t6h-6" style="edgeStyle=orthogonalEdgeStyle;rounded=0;orthogonalLoop=1;jettySize=auto;html=1;" parent="1" source="jtE4v7U7eqWrBJsc5t6h-10" target="jtE4v7U7eqWrBJsc5t6h-5" edge="1">
          <mxGeometry relative="1" as="geometry">
            <mxPoint x="400" y="230" as="targetPoint" />
          </mxGeometry>
        </mxCell>
        <mxCell id="jtE4v7U7eqWrBJsc5t6h-7" value="去 TTS 合成语音" style="edgeLabel;html=1;align=center;verticalAlign=middle;resizable=0;points=[];" parent="jtE4v7U7eqWrBJsc5t6h-6" vertex="1" connectable="0">
          <mxGeometry x="0.6593" y="-1" relative="1" as="geometry">
            <mxPoint as="offset" />
          </mxGeometry>
        </mxCell>
        <mxCell id="jtE4v7U7eqWrBJsc5t6h-8" style="edgeStyle=orthogonalEdgeStyle;rounded=0;orthogonalLoop=1;jettySize=auto;html=1;entryX=0.5;entryY=0;entryDx=0;entryDy=0;" parent="1" source="jtE4v7U7eqWrBJsc5t6h-10" target="jtE4v7U7eqWrBJsc5t6h-12" edge="1">
          <mxGeometry relative="1" as="geometry" />
        </mxCell>
        <mxCell id="jtE4v7U7eqWrBJsc5t6h-9" value="TTS 语音合成" style="edgeLabel;html=1;align=center;verticalAlign=middle;resizable=0;points=[];" parent="jtE4v7U7eqWrBJsc5t6h-8" vertex="1" connectable="0">
          <mxGeometry x="0.1915" y="-2" relative="1" as="geometry">
            <mxPoint as="offset" />
          </mxGeometry>
        </mxCell>
        <mxCell id="jtE4v7U7eqWrBJsc5t6h-10" value="喇叭" style="rounded=1;whiteSpace=wrap;html=1;fillColor=#fff2cc;strokeColor=#d6b656;" parent="1" vertex="1">
          <mxGeometry x="600" y="120" width="120" height="60" as="geometry" />
        </mxCell>
        <mxCell id="jtE4v7U7eqWrBJsc5t6h-11" style="edgeStyle=orthogonalEdgeStyle;rounded=0;orthogonalLoop=1;jettySize=auto;html=1;" parent="1" source="jtE4v7U7eqWrBJsc5t6h-12" target="jtE4v7U7eqWrBJsc5t6h-5" edge="1">
          <mxGeometry relative="1" as="geometry" />
        </mxCell>
        <mxCell id="jtE4v7U7eqWrBJsc5t6h-12" value="麦克风" style="rounded=1;whiteSpace=wrap;html=1;fillColor=#dae8fc;strokeColor=#6c8ebf;" parent="1" vertex="1">
          <mxGeometry x="160" y="240" width="120" height="60" as="geometry" />
        </mxCell>
        <mxCell id="jtE4v7U7eqWrBJsc5t6h-13" style="edgeStyle=orthogonalEdgeStyle;rounded=0;orthogonalLoop=1;jettySize=auto;html=1;" parent="1" source="jtE4v7U7eqWrBJsc5t6h-15" target="jtE4v7U7eqWrBJsc5t6h-10" edge="1">
          <mxGeometry relative="1" as="geometry" />
        </mxCell>
        <mxCell id="jtE4v7U7eqWrBJsc5t6h-14" style="edgeStyle=orthogonalEdgeStyle;rounded=0;orthogonalLoop=1;jettySize=auto;html=1;" parent="1" source="jtE4v7U7eqWrBJsc5t6h-15" target="jtE4v7U7eqWrBJsc5t6h-16" edge="1">
          <mxGeometry relative="1" as="geometry" />
        </mxCell>
        <mxCell id="jtE4v7U7eqWrBJsc5t6h-15" value="Android 盒子" style="rounded=1;whiteSpace=wrap;html=1;fillColor=#ffe6cc;strokeColor=#d79b00;" parent="1" vertex="1">
          <mxGeometry x="600" y="240" width="120" height="60" as="geometry" />
        </mxCell>
        <mxCell id="jtE4v7U7eqWrBJsc5t6h-16" value="云识别" style="ellipse;shape=cloud;whiteSpace=wrap;html=1;fillColor=#f5f5f5;fontColor=#333333;strokeColor=#666666;" parent="1" vertex="1">
          <mxGeometry x="600" y="360" width="120" height="80" as="geometry" />
        </mxCell>
        <mxCell id="nkZn8lRg84EZCwa2L1bH-1" value="&lt;h1 style=&quot;margin-top: 0px;&quot;&gt;Android AI 人工智能开发，NLP 自然语言处理，声音回采消除&lt;/h1&gt;&lt;p&gt;Design by netkiller - https://www.netkiller.cn/android/&lt;/p&gt;" style="text;html=1;whiteSpace=wrap;overflow=hidden;rounded=0;" vertex="1" parent="1">
          <mxGeometry x="40" y="40" width="1080" height="80" as="geometry" />
        </mxCell>
        <mxCell id="XNPSzKChoHx9CXePAtP2-1" style="edgeStyle=orthogonalEdgeStyle;rounded=0;orthogonalLoop=1;jettySize=auto;html=1;" edge="1" parent="1" source="XNPSzKChoHx9CXePAtP2-2" target="XNPSzKChoHx9CXePAtP2-12">
          <mxGeometry relative="1" as="geometry" />
        </mxCell>
        <mxCell id="XNPSzKChoHx9CXePAtP2-2" value="说话人" style="shape=umlActor;verticalLabelPosition=bottom;verticalAlign=top;html=1;outlineConnect=0;" vertex="1" parent="1">
          <mxGeometry x="40" y="720" width="30" height="60" as="geometry" />
        </mxCell>
        <mxCell id="XNPSzKChoHx9CXePAtP2-3" style="edgeStyle=orthogonalEdgeStyle;rounded=0;orthogonalLoop=1;jettySize=auto;html=1;" edge="1" parent="1" source="XNPSzKChoHx9CXePAtP2-8" target="XNPSzKChoHx9CXePAtP2-14">
          <mxGeometry relative="1" as="geometry" />
        </mxCell>
        <mxCell id="XNPSzKChoHx9CXePAtP2-4" value="说话人" style="edgeLabel;html=1;align=center;verticalAlign=middle;resizable=0;points=[];" vertex="1" connectable="0" parent="XNPSzKChoHx9CXePAtP2-3">
          <mxGeometry x="-0.0167" relative="1" as="geometry">
            <mxPoint as="offset" />
          </mxGeometry>
        </mxCell>
        <mxCell id="XNPSzKChoHx9CXePAtP2-5" style="edgeStyle=orthogonalEdgeStyle;rounded=0;orthogonalLoop=1;jettySize=auto;html=1;" edge="1" parent="1" source="XNPSzKChoHx9CXePAtP2-17" target="XNPSzKChoHx9CXePAtP2-10">
          <mxGeometry relative="1" as="geometry" />
        </mxCell>
        <mxCell id="XNPSzKChoHx9CXePAtP2-6" style="edgeStyle=orthogonalEdgeStyle;rounded=0;orthogonalLoop=1;jettySize=auto;html=1;" edge="1" parent="1" source="XNPSzKChoHx9CXePAtP2-8" target="XNPSzKChoHx9CXePAtP2-17">
          <mxGeometry relative="1" as="geometry" />
        </mxCell>
        <mxCell id="XNPSzKChoHx9CXePAtP2-7" value="声音输出" style="edgeLabel;html=1;align=center;verticalAlign=middle;resizable=0;points=[];" vertex="1" connectable="0" parent="XNPSzKChoHx9CXePAtP2-6">
          <mxGeometry x="0.0182" y="-2" relative="1" as="geometry">
            <mxPoint as="offset" />
          </mxGeometry>
        </mxCell>
        <mxCell id="XNPSzKChoHx9CXePAtP2-8" value="音频处理&lt;div&gt;芯片&lt;/div&gt;" style="rounded=1;whiteSpace=wrap;html=1;fillColor=#f8cecc;strokeColor=#b85450;" vertex="1" parent="1">
          <mxGeometry x="360" y="720" width="120" height="60" as="geometry" />
        </mxCell>
        <mxCell id="XNPSzKChoHx9CXePAtP2-9" style="edgeStyle=orthogonalEdgeStyle;rounded=0;orthogonalLoop=1;jettySize=auto;html=1;entryX=0.25;entryY=0;entryDx=0;entryDy=0;exitX=0.5;exitY=1;exitDx=0;exitDy=0;" edge="1" parent="1" source="XNPSzKChoHx9CXePAtP2-10" target="XNPSzKChoHx9CXePAtP2-8">
          <mxGeometry relative="1" as="geometry" />
        </mxCell>
        <mxCell id="XNPSzKChoHx9CXePAtP2-10" value="回采" style="rounded=1;whiteSpace=wrap;html=1;" vertex="1" parent="1">
          <mxGeometry x="190" y="560" width="120" height="60" as="geometry" />
        </mxCell>
        <mxCell id="XNPSzKChoHx9CXePAtP2-11" style="edgeStyle=orthogonalEdgeStyle;rounded=0;orthogonalLoop=1;jettySize=auto;html=1;" edge="1" parent="1" source="XNPSzKChoHx9CXePAtP2-12" target="XNPSzKChoHx9CXePAtP2-8">
          <mxGeometry relative="1" as="geometry" />
        </mxCell>
        <mxCell id="XNPSzKChoHx9CXePAtP2-12" value="麦克风" style="rounded=1;whiteSpace=wrap;html=1;" vertex="1" parent="1">
          <mxGeometry x="160" y="720" width="120" height="60" as="geometry" />
        </mxCell>
        <mxCell id="XNPSzKChoHx9CXePAtP2-13" style="edgeStyle=orthogonalEdgeStyle;rounded=0;orthogonalLoop=1;jettySize=auto;html=1;" edge="1" parent="1" source="XNPSzKChoHx9CXePAtP2-14" target="XNPSzKChoHx9CXePAtP2-15">
          <mxGeometry relative="1" as="geometry" />
        </mxCell>
        <mxCell id="XNPSzKChoHx9CXePAtP2-14" value="Android 盒子" style="rounded=1;whiteSpace=wrap;html=1;" vertex="1" parent="1">
          <mxGeometry x="600" y="720" width="120" height="60" as="geometry" />
        </mxCell>
        <mxCell id="XNPSzKChoHx9CXePAtP2-15" value="云识别" style="ellipse;shape=cloud;whiteSpace=wrap;html=1;" vertex="1" parent="1">
          <mxGeometry x="600" y="840" width="120" height="80" as="geometry" />
        </mxCell>
        <mxCell id="XNPSzKChoHx9CXePAtP2-16" value="" style="edgeStyle=orthogonalEdgeStyle;rounded=0;orthogonalLoop=1;jettySize=auto;html=1;" edge="1" parent="1" source="XNPSzKChoHx9CXePAtP2-17" target="XNPSzKChoHx9CXePAtP2-18">
          <mxGeometry relative="1" as="geometry" />
        </mxCell>
        <mxCell id="XNPSzKChoHx9CXePAtP2-17" value="音频三通" style="rounded=1;whiteSpace=wrap;html=1;fillColor=#e1d5e7;strokeColor=#9673a6;" vertex="1" parent="1">
          <mxGeometry x="360" y="570" width="120" height="40" as="geometry" />
        </mxCell>
        <mxCell id="XNPSzKChoHx9CXePAtP2-18" value="喇叭输出" style="whiteSpace=wrap;html=1;rounded=1;fillColor=#ffe6cc;strokeColor=#d79b00;" vertex="1" parent="1">
          <mxGeometry x="600" y="560" width="120" height="60" as="geometry" />
        </mxCell>
      </root>
    </mxGraphModel>
  </diagram>
  <diagram id="ZONdOiexQgjLWXwX7vRu" name="第 3 页">
    <mxGraphModel dx="1306" dy="873" grid="1" gridSize="10" guides="1" tooltips="1" connect="1" arrows="1" fold="1" page="1" pageScale="1" pageWidth="827" pageHeight="1169" math="0" shadow="0">
      <root>
        <mxCell id="0" />
        <mxCell id="1" parent="0" />
        <mxCell id="W-Vz_yb2tlxf3viWGg4q-1" value="" style="shape=flexArrow;endArrow=classic;html=1;rounded=0;" edge="1" parent="1">
          <mxGeometry width="50" height="50" relative="1" as="geometry">
            <mxPoint x="40" y="360" as="sourcePoint" />
            <mxPoint x="760" y="360" as="targetPoint" />
          </mxGeometry>
        </mxCell>
        <mxCell id="W-Vz_yb2tlxf3viWGg4q-22" style="edgeStyle=orthogonalEdgeStyle;rounded=0;orthogonalLoop=1;jettySize=auto;html=1;" edge="1" parent="1" source="W-Vz_yb2tlxf3viWGg4q-2" target="W-Vz_yb2tlxf3viWGg4q-4">
          <mxGeometry relative="1" as="geometry" />
        </mxCell>
        <mxCell id="W-Vz_yb2tlxf3viWGg4q-2" value="唤醒词" style="rounded=1;whiteSpace=wrap;html=1;" vertex="1" parent="1">
          <mxGeometry x="160" y="300" width="80" height="40" as="geometry" />
        </mxCell>
        <mxCell id="W-Vz_yb2tlxf3viWGg4q-23" style="edgeStyle=orthogonalEdgeStyle;rounded=0;orthogonalLoop=1;jettySize=auto;html=1;" edge="1" parent="1" source="W-Vz_yb2tlxf3viWGg4q-4" target="W-Vz_yb2tlxf3viWGg4q-6">
          <mxGeometry relative="1" as="geometry" />
        </mxCell>
        <mxCell id="W-Vz_yb2tlxf3viWGg4q-4" value="语音识别" style="rounded=1;whiteSpace=wrap;html=1;" vertex="1" parent="1">
          <mxGeometry x="280" y="300" width="160" height="40" as="geometry" />
        </mxCell>
        <mxCell id="W-Vz_yb2tlxf3viWGg4q-24" style="edgeStyle=orthogonalEdgeStyle;rounded=0;orthogonalLoop=1;jettySize=auto;html=1;" edge="1" parent="1" source="W-Vz_yb2tlxf3viWGg4q-6" target="W-Vz_yb2tlxf3viWGg4q-18">
          <mxGeometry relative="1" as="geometry" />
        </mxCell>
        <mxCell id="W-Vz_yb2tlxf3viWGg4q-6" value="回返文字" style="rounded=1;whiteSpace=wrap;html=1;" vertex="1" parent="1">
          <mxGeometry x="480" y="300" width="120" height="40" as="geometry" />
        </mxCell>
        <mxCell id="W-Vz_yb2tlxf3viWGg4q-8" value="" style="strokeWidth=2;html=1;shape=mxgraph.flowchart.annotation_2;align=left;labelPosition=right;pointerEvents=1;" vertex="1" parent="1">
          <mxGeometry x="440" y="540" width="50" height="100" as="geometry" />
        </mxCell>
        <mxCell id="W-Vz_yb2tlxf3viWGg4q-9" value="" style="shape=curlyBracket;whiteSpace=wrap;html=1;rounded=1;labelPosition=left;verticalLabelPosition=middle;align=right;verticalAlign=middle;rotation=90;" vertex="1" parent="1">
          <mxGeometry x="350" y="190" width="20" height="160" as="geometry" />
        </mxCell>
        <mxCell id="W-Vz_yb2tlxf3viWGg4q-10" value="识别时长" style="text;html=1;align=center;verticalAlign=middle;whiteSpace=wrap;rounded=0;" vertex="1" parent="1">
          <mxGeometry x="330" y="230" width="60" height="30" as="geometry" />
        </mxCell>
        <mxCell id="W-Vz_yb2tlxf3viWGg4q-11" value="" style="shape=curlyBracket;whiteSpace=wrap;html=1;rounded=1;flipH=1;labelPosition=right;verticalLabelPosition=middle;align=left;verticalAlign=middle;rotation=90;" vertex="1" parent="1">
          <mxGeometry x="250" y="370" width="20" height="45" as="geometry" />
        </mxCell>
        <mxCell id="W-Vz_yb2tlxf3viWGg4q-12" value="缝隙时长" style="text;html=1;align=center;verticalAlign=middle;whiteSpace=wrap;rounded=0;" vertex="1" parent="1">
          <mxGeometry x="230" y="410" width="60" height="30" as="geometry" />
        </mxCell>
        <mxCell id="W-Vz_yb2tlxf3viWGg4q-13" value="" style="shape=curlyBracket;whiteSpace=wrap;html=1;rounded=1;flipH=1;labelPosition=right;verticalLabelPosition=middle;align=left;verticalAlign=middle;rotation=90;" vertex="1" parent="1">
          <mxGeometry x="450" y="370" width="20" height="45" as="geometry" />
        </mxCell>
        <mxCell id="W-Vz_yb2tlxf3viWGg4q-14" value="超时时长" style="text;html=1;align=center;verticalAlign=middle;whiteSpace=wrap;rounded=0;" vertex="1" parent="1">
          <mxGeometry x="430" y="410" width="60" height="30" as="geometry" />
        </mxCell>
        <mxCell id="W-Vz_yb2tlxf3viWGg4q-15" value="&lt;h1 style=&quot;margin-top: 0px;&quot;&gt;&lt;font&gt;问题一&lt;/font&gt;&lt;/h1&gt;&lt;pre&gt;&lt;div style=&quot;font-family: Menlo, Monaco, &amp;quot;Courier New&amp;quot;, monospace; line-height: 18px;&quot;&gt;&lt;div style=&quot;&quot;&gt;&lt;font style=&quot;color: rgb(51, 0, 26);&quot;&gt;1，唤醒后识别开始，这个时间缝隙是多少，怎么调整这个缝隙时长？&lt;/font&gt;&lt;/div&gt;&lt;div style=&quot;&quot;&gt;&lt;font style=&quot;color: rgb(51, 0, 26);&quot;&gt;2，语音识别时长是60秒？我怎么缩短到 30秒？&lt;br&gt;&lt;span style=&quot;white-space: pre;&quot;&gt;&#x9;&lt;/span&gt;我尝试 EVENT_ASR_PARTIAL_RESULT 提前返回，但是有问题，因为 ASR 还会继续识别。&lt;/font&gt;&lt;/div&gt;&lt;div style=&quot;&quot;&gt;&lt;font style=&quot;color: rgb(51, 0, 26);&quot;&gt;3. 唤醒后，不讲话，多少秒会超时？怎么调整这个时间&lt;/font&gt;&lt;/div&gt;&lt;div style=&quot;&quot;&gt;&lt;font style=&quot;color: rgb(51, 0, 26);&quot;&gt;4. 唤醒，并识别之后，停止讲话，多久返回 EVENT_ASR_RESULT，怎么调整这个值&lt;/font&gt;&lt;/div&gt;&lt;/div&gt;&lt;/pre&gt;&lt;p&gt;&lt;/p&gt;&lt;p&gt;&lt;span style=&quot;color: rgb(135, 16, 148); font-style: italic; font-family: &amp;quot;JetBrains Mono&amp;quot;, monospace; font-size: 9.8pt;&quot;&gt;&lt;br&gt;&lt;/span&gt;&lt;/p&gt;" style="text;html=1;whiteSpace=wrap;overflow=hidden;rounded=0;labelBackgroundColor=none;" vertex="1" parent="1">
          <mxGeometry x="40" y="40" width="720" height="180" as="geometry" />
        </mxCell>
        <mxCell id="W-Vz_yb2tlxf3viWGg4q-16" value="时间轴" style="text;html=1;align=center;verticalAlign=middle;whiteSpace=wrap;rounded=0;" vertex="1" parent="1">
          <mxGeometry x="760" y="350" width="60" height="30" as="geometry" />
        </mxCell>
        <mxCell id="W-Vz_yb2tlxf3viWGg4q-20" style="edgeStyle=orthogonalEdgeStyle;rounded=0;orthogonalLoop=1;jettySize=auto;html=1;entryX=0;entryY=0.5;entryDx=0;entryDy=0;" edge="1" parent="1" source="W-Vz_yb2tlxf3viWGg4q-17" target="W-Vz_yb2tlxf3viWGg4q-2">
          <mxGeometry relative="1" as="geometry" />
        </mxCell>
        <mxCell id="W-Vz_yb2tlxf3viWGg4q-17" value="开始唤醒" style="rounded=1;whiteSpace=wrap;html=1;" vertex="1" parent="1">
          <mxGeometry x="40" y="300" width="80" height="40" as="geometry" />
        </mxCell>
        <mxCell id="W-Vz_yb2tlxf3viWGg4q-19" style="edgeStyle=orthogonalEdgeStyle;rounded=0;orthogonalLoop=1;jettySize=auto;html=1;entryX=0.5;entryY=1;entryDx=0;entryDy=0;exitX=0.5;exitY=1;exitDx=0;exitDy=0;" edge="1" parent="1" source="W-Vz_yb2tlxf3viWGg4q-18" target="W-Vz_yb2tlxf3viWGg4q-17">
          <mxGeometry relative="1" as="geometry">
            <Array as="points">
              <mxPoint x="680" y="450" />
              <mxPoint x="80" y="450" />
            </Array>
          </mxGeometry>
        </mxCell>
        <mxCell id="W-Vz_yb2tlxf3viWGg4q-18" value="停止唤醒" style="rounded=1;whiteSpace=wrap;html=1;" vertex="1" parent="1">
          <mxGeometry x="640" y="300" width="80" height="40" as="geometry" />
        </mxCell>
      </root>
    </mxGraphModel>
  </diagram>
</mxfile>
